<svg version="1.1" id="Layer_1" xmlns="http://www.w3.org/2000/svg" xmlns:xlink="http://www.w3.org/1999/xlink" x="0px" y="0px"
	 width="100%" viewBox="0 0 1254 1254" enable-background="new 0 0 1254 1254" xml:space="preserve">
<path fill="#0B0A0A" opacity="1.000000" stroke="none" 
	d="
M691.000000,1255.000000 
	C460.666656,1255.000000 230.833328,1255.000000 1.000000,1255.000000 
	C1.000000,837.000000 1.000000,419.000000 1.000000,1.000000 
	C419.000000,1.000000 837.000000,1.000000 1255.000000,1.000000 
	C1255.000000,419.000000 1255.000000,837.000000 1255.000000,1255.000000 
	C1067.166626,1255.000000 879.333313,1255.000000 691.000000,1255.000000 
M655.084900,929.990601 
	C655.338257,933.272522 656.404846,936.043091 660.300598,935.842407 
	C664.327332,935.635071 664.775513,932.464722 664.886963,929.325439 
	C664.981567,926.661743 664.946716,923.992981 664.947083,921.326477 
	C664.949890,901.493530 665.025940,881.660095 664.882874,861.828125 
	C664.852539,857.620483 666.104492,855.586365 670.581116,855.925598 
	C673.728027,856.164124 676.910400,855.913086 680.076965,855.917419 
	C686.901062,855.926819 687.030762,856.047485 687.030701,862.941040 
	C687.030457,890.273804 686.898560,917.607727 687.170654,944.937683 
	C687.201599,948.046814 688.893677,951.568420 690.825562,954.139954 
	C694.814270,959.448975 699.612671,964.142395 703.795837,969.317139 
	C705.047058,970.864807 705.948059,973.152893 706.004150,975.130188 
	C706.244995,983.623230 706.333679,992.136841 705.948608,1000.619019 
	C705.858887,1002.595093 704.146606,1005.233215 702.407471,1006.272766 
	C694.374390,1011.074585 690.534729,1019.440430 692.843628,1028.379883 
	C695.069885,1036.999634 702.259644,1042.172729 711.871216,1042.070435 
	C720.255371,1041.981201 727.965210,1036.235474 729.715637,1028.771851 
	C732.039673,1018.862366 728.674500,1010.954712 719.813171,1006.622681 
	C716.927124,1005.211792 715.965027,1003.422363 715.993103,1000.426331 
	C716.081970,990.927368 716.139648,981.424194 715.917236,971.929443 
	C715.866577,969.767395 715.136475,967.257141 713.853516,965.562744 
	C711.049927,961.860229 708.050476,958.137390 704.478149,955.223083 
	C698.345703,950.220215 696.651855,944.227600 696.800293,936.436829 
	C697.270142,911.779724 697.079346,887.106995 696.869751,862.442627 
	C696.826721,857.370911 698.525757,855.469849 703.526184,855.925476 
	C706.830444,856.226562 710.197083,856.109863 713.517761,855.897827 
	C717.573608,855.638916 719.239197,857.210083 719.122925,861.378052 
	C718.909302,869.038574 719.052307,876.709229 719.057556,884.375671 
	C719.062988,892.264160 719.755432,892.981506 727.576721,892.985901 
	C754.076172,893.000916 780.576660,892.891479 807.073608,893.149902 
	C810.058716,893.179016 813.627014,894.542847 815.897949,896.487244 
	C828.162231,906.988403 839.986084,918.003357 852.222717,928.538086 
	C856.137024,931.908020 858.738892,935.306641 859.996948,940.601135 
	C862.903381,952.832886 875.727539,958.656433 886.710266,953.587891 
	C894.040039,950.205322 897.585510,944.097046 897.755066,936.514404 
	C897.931396,928.627258 894.195496,922.329285 886.765198,918.912231 
	C879.691589,915.659241 872.585449,915.893799 866.652100,921.161194 
	C863.079224,924.332947 861.080322,923.565796 857.955139,920.713806 
	C845.782532,909.605103 833.268433,898.870972 821.073853,887.785828 
	C817.106445,884.179382 812.897217,882.856750 807.552368,882.909607 
	C783.721924,883.145325 759.887695,883.013977 736.054871,883.003479 
	C728.981567,883.000305 728.928223,882.932373 728.932373,875.653381 
	C728.934631,871.653503 728.954407,867.653564 728.968384,863.653687 
	C728.995117,856.002441 728.995728,855.968018 736.786133,855.963684 
	C777.951965,855.940796 819.118103,856.027283 860.283508,855.894226 
	C887.615967,855.805908 908.013245,835.206421 908.039551,808.007690 
	C908.056458,790.508057 908.189636,773.006958 907.991150,755.509705 
	C907.933960,750.467346 909.792236,748.810730 914.737061,748.879700 
	C930.567078,749.100525 946.403320,748.872559 962.233459,749.089294 
	C964.495117,749.120178 967.254456,750.081421 968.899658,751.581421 
	C977.266846,759.209961 985.274109,767.231567 993.557556,774.954468 
	C996.537170,777.732422 998.042725,780.691833 998.186707,784.915283 
	C998.464294,793.059753 1004.599976,799.947510 1012.290955,801.698303 
	C1021.012146,803.683533 1029.585938,800.042908 1033.724854,792.596985 
	C1037.973511,784.953674 1036.535522,774.943604 1030.353394,769.127014 
	C1023.999817,763.148987 1013.615601,762.180237 1005.810730,767.385132 
	C1002.935486,769.302551 1001.383545,769.001221 999.093567,766.744873 
	C991.145386,758.913818 982.865173,751.416565 975.008667,743.497253 
	C971.827209,740.290283 968.550049,738.874390 964.016541,738.932739 
	C947.186340,739.149353 930.350891,738.939148 913.519409,739.102356 
	C909.389465,739.142456 907.755127,737.689758 908.021545,733.563416 
	C908.268066,729.745239 908.127686,725.900452 908.116760,722.067505 
	C908.104553,717.784668 909.918640,715.749939 914.485962,715.834900 
	C925.148682,716.033142 935.828064,716.164246 946.477112,715.735413 
	C949.453369,715.615662 952.998047,714.142639 955.166016,712.103821 
	C964.388611,703.430542 973.067017,694.179810 982.249756,685.461792 
	C984.188477,683.621094 987.388000,682.257324 990.051453,682.178040 
	C1001.707336,681.830750 1013.382202,682.174377 1025.044922,681.969482 
	C1029.276978,681.895142 1031.928955,682.988037 1034.279419,686.929321 
	C1040.665894,697.638184 1057.139648,698.727295 1064.905029,689.369202 
	C1072.421997,680.310364 1070.745239,667.715515 1061.101929,660.800537 
	C1052.096313,654.342834 1039.211060,657.229736 1033.711426,667.499939 
	C1031.677979,671.297241 1029.274902,672.203125 1025.436768,672.160889 
	C1012.605286,672.019470 999.766357,671.919067 986.941956,672.252197 
	C984.060974,672.327087 980.526611,673.486206 978.496033,675.413574 
	C970.662048,682.849426 963.258972,690.744995 955.811218,698.579407 
	C952.150085,702.430664 948.432495,705.407104 942.553528,705.298645 
	C932.105774,705.105896 921.645325,705.661560 911.192627,705.582581 
	C910.145508,705.574768 908.301636,703.407898 908.219482,702.151978 
	C907.882996,697.008057 908.135193,691.828125 908.073303,686.662659 
	C908.031616,683.181580 909.844666,681.997498 913.081360,682.026550 
	C919.913818,682.087830 926.747498,682.017395 933.580627,682.007935 
	C937.580322,682.002441 941.650818,682.451233 945.549744,681.825134 
	C947.483459,681.514587 949.101624,679.239075 950.862549,677.852478 
	C949.293030,676.005798 947.945557,673.868042 946.062866,672.432068 
	C945.084351,671.685730 943.160339,672.123230 941.663391,672.121643 
	C932.830322,672.112122 923.997131,672.155884 915.164124,672.131836 
	C908.227844,672.112976 908.080933,671.982666 908.077881,665.194214 
	C908.065979,638.861450 908.080811,612.528625 908.098206,586.195862 
	C908.102966,578.938782 908.147583,578.931946 915.290100,578.925049 
	C925.289368,578.915405 935.289429,578.935974 945.287537,578.812622 
	C948.391968,578.774353 950.997742,577.602356 950.905396,573.884460 
	C950.816345,570.302856 948.431396,569.070129 945.200195,569.004395 
	C943.534119,568.970520 941.867188,568.967163 940.200684,568.965881 
	C931.201050,568.958740 922.200623,568.890137 913.202087,568.985596 
	C909.613708,569.023682 907.903748,567.516113 908.092834,563.924866 
	C908.320190,559.608521 908.708740,555.294189 908.749756,550.976379 
	C908.787231,547.030029 910.699707,545.867554 914.395752,545.923401 
	C924.059875,546.069275 933.740601,545.676758 943.386597,546.117126 
	C946.366516,546.253235 949.907043,547.683716 952.072327,549.714355 
	C960.941895,558.032349 969.236267,566.962769 978.082642,575.307007 
	C980.138611,577.246399 983.505981,578.701965 986.315125,578.781433 
	C999.304626,579.149231 1012.311890,579.076538 1025.308716,578.886108 
	C1029.391724,578.826294 1031.948242,579.864136 1034.078369,583.722168 
	C1037.698364,590.278931 1043.692749,593.986877 1051.361328,593.636963 
	C1060.819092,593.205444 1068.615967,585.232666 1069.724731,575.497375 
	C1070.627441,567.573181 1064.890381,558.977112 1056.814819,556.153381 
	C1047.943726,553.051575 1038.442993,556.531067 1033.679810,564.989685 
	C1032.083862,567.823730 1030.241699,569.067017 1026.992798,569.036072 
	C1014.494202,568.916870 1001.990356,569.144409 989.497131,568.860779 
	C987.125488,568.806885 984.256531,567.576416 982.533203,565.929932 
	C973.738770,557.528137 965.123169,548.928162 956.712585,540.141296 
	C953.806641,537.105286 950.765503,535.824585 946.616455,535.897583 
	C935.453430,536.094177 924.283875,535.897278 913.118958,536.027161 
	C909.543335,536.068665 907.863037,534.833984 908.036072,531.103943 
	C908.221252,527.111755 908.140869,523.106140 908.134399,519.106445 
	C908.127502,514.881897 909.787048,512.414734 914.426086,512.859863 
	C915.581909,512.970825 916.757812,512.871094 917.924438,512.871338 
	C932.059814,512.874023 946.195251,512.860107 960.330505,512.901123 
	C962.199951,512.906555 964.068665,513.192505 966.395203,513.386719 
	C964.744324,516.859802 963.447021,519.589050 962.149658,522.318359 
	C962.518494,522.538513 962.887329,522.758728 963.256165,522.978882 
	C964.215027,521.755615 965.223450,520.567505 966.122986,519.302063 
	C968.333984,516.191650 970.099731,512.653381 972.748535,509.986389 
	C981.315613,501.360413 990.243103,493.093658 998.932495,484.587097 
	C1001.224609,482.343323 1002.967224,481.967896 1005.730103,484.140594 
	C1012.117737,489.163635 1022.247986,489.058441 1028.085815,484.353760 
	C1035.946289,478.019165 1038.386108,468.826202 1034.474609,460.281647 
	C1031.071045,452.846588 1022.092163,448.046783 1014.290405,449.491760 
	C1004.697510,451.268494 998.756470,457.814117 997.909241,467.048737 
	C997.695862,469.374908 997.050842,472.190857 995.545898,473.778839 
	C988.441772,481.274750 980.820618,488.279327 973.678711,495.741302 
	C968.301575,501.359375 961.887024,503.124969 954.362000,502.990021 
	C941.220642,502.754333 928.071655,502.954529 914.925903,502.946198 
	C908.494751,502.942139 908.071167,502.534546 908.065918,496.188812 
	C908.049988,476.689209 908.093567,457.189514 908.036499,437.690094 
	C908.027771,434.706757 907.921204,431.661255 907.330627,428.751953 
	C902.649536,405.692535 883.654175,390.183350 859.880676,390.110291 
	C828.881592,390.015045 797.882019,390.083069 766.882629,390.077911 
	C756.216187,390.076141 745.545837,389.894714 734.885071,390.137970 
	C730.217529,390.244476 728.623352,388.431122 728.905701,383.961334 
	C729.157349,379.977783 728.932983,375.964935 728.940857,371.965057 
	C728.954468,365.065430 729.059265,364.926300 735.888000,364.920746 
	C760.220825,364.900970 784.554504,365.005646 808.885437,364.791870 
	C811.994995,364.764557 815.811890,363.998962 818.073853,362.107574 
	C831.481812,350.896729 844.622375,339.358215 857.626770,327.678192 
	C860.753845,324.869598 862.613525,323.953766 866.159058,327.328613 
	C872.473328,333.338776 882.549255,333.462982 889.757019,328.455078 
	C896.516357,323.758789 899.401001,314.804657 896.759766,306.718384 
	C893.893860,297.944427 887.348450,293.697845 877.083313,293.952576 
	C868.833496,294.157257 861.897522,299.727814 859.828491,308.681305 
	C858.812744,313.076752 856.517700,315.923401 853.215271,318.748627 
	C840.943176,329.247223 828.816528,339.923737 816.886353,350.808594 
	C813.691467,353.723511 810.542725,355.065918 806.233948,355.041718 
	C780.401978,354.896362 754.568787,354.964325 728.735962,354.967621 
	C719.389343,354.968811 719.056824,355.295532 719.052917,364.407898 
	C719.050110,370.907715 718.824890,377.419800 719.153320,383.903381 
	C719.401733,388.809082 717.440613,390.522827 712.741272,390.114075 
	C709.764160,389.855133 706.745605,390.085297 703.745728,390.071442 
	C697.133240,390.040863 696.949707,389.879425 696.947266,383.394165 
	C696.938171,358.894653 697.282166,334.388031 696.761108,309.899658 
	C696.586914,301.714874 698.422791,295.441162 704.892639,290.304047 
	C707.979797,287.852814 710.599976,284.658691 712.897278,281.421814 
	C714.423523,279.271393 715.782837,276.476196 715.869995,273.923615 
	C716.211182,263.935333 716.147278,253.926208 715.954163,243.930237 
	C715.881226,240.153687 717.084656,237.964096 720.522583,236.047089 
	C730.219360,230.639984 733.322937,217.907150 727.474915,209.281326 
	C722.856995,202.469940 714.930481,199.016418 707.632751,200.636337 
	C699.055969,202.540176 693.701172,208.243256 692.286377,216.980942 
	C691.073120,224.473755 694.770508,232.226761 702.083679,236.173553 
	C705.246338,237.880402 706.215881,239.988495 706.161255,243.321838 
	C706.024719,251.652771 705.969666,259.991058 706.177551,268.319031 
	C706.279602,272.408905 705.337769,275.707794 702.261047,278.596771 
	C699.114929,281.550842 696.490295,285.052765 693.435425,288.113251 
	C688.879761,292.677216 686.638184,297.693176 686.846313,304.498596 
	C687.355469,321.149475 687.021240,337.826172 687.022522,354.492493 
	C687.023315,364.658936 686.941040,374.826263 687.054993,384.991394 
	C687.095032,388.561951 685.801758,390.235748 682.096252,390.084137 
	C678.436584,389.934448 674.744995,389.851105 671.102966,390.159302 
	C666.218201,390.572662 664.803223,388.514709 664.847900,383.793518 
	C665.046875,362.795807 664.945312,341.795227 664.940063,320.795685 
	C664.939575,318.963806 665.421631,316.833099 664.659851,315.373352 
	C663.637024,313.413513 661.620789,311.972137 660.031067,310.308197 
	C658.401611,311.919800 656.401184,313.312378 655.274292,315.220764 
	C654.533875,316.474701 655.015869,318.473175 655.016113,320.138214 
	C655.018738,338.304504 655.029480,356.470764 655.047913,374.637054 
	C655.063721,390.280579 655.069397,390.280609 639.431580,390.116974 
	C633.249634,390.052307 633.014465,389.852936 633.012268,383.566132 
	C632.996094,337.067078 633.031494,290.567963 632.929688,244.069092 
	C632.921204,240.182190 633.855225,237.737946 637.574402,235.745010 
	C645.023560,231.753372 648.472168,222.722244 646.341675,214.758484 
	C644.074524,206.283600 636.230103,200.135513 627.666016,200.121277 
	C619.969727,200.108475 612.383362,205.857529 610.110718,213.424820 
	C607.510559,222.083008 610.441101,231.538162 617.983765,235.673065 
	C622.277100,238.026672 623.124207,240.921463 623.112549,245.294174 
	C623.001465,286.959686 623.053711,328.625641 623.053467,370.291443 
	C623.053467,375.457855 622.978943,380.624573 623.020813,385.790527 
	C623.044434,388.704346 621.736023,390.083923 618.806030,390.053955 
	C614.973511,390.014771 611.124023,389.851807 607.311035,390.134949 
	C602.602112,390.484589 600.835205,388.771088 600.911560,383.893707 
	C601.154053,368.397797 601.007629,352.895721 600.999023,337.396027 
	C600.994995,330.229797 601.274414,323.040192 600.741089,315.912384 
	C600.591919,313.918610 598.007690,312.107056 596.540466,310.211914 
	C594.798767,311.917236 592.644836,313.381439 591.457520,315.411102 
	C590.640930,316.807098 591.101135,318.987457 591.100037,320.817291 
	C591.087830,341.816864 590.985046,362.817505 591.183838,383.815216 
	C591.229370,388.620270 589.603333,390.514069 584.826599,390.100464 
	C581.851135,389.842804 578.831421,390.110535 575.831604,390.115936 
	C569.242432,390.127777 569.019653,389.921204 569.019409,383.479004 
	C569.018616,358.646179 568.657410,333.804810 569.225403,308.984833 
	C569.444763,299.398590 568.095337,291.384827 560.036255,285.276154 
	C557.301392,283.203217 555.027710,280.337555 553.080811,277.469299 
	C551.592468,275.276611 550.196594,272.546204 550.072021,269.990967 
	C549.682800,262.009766 550.139465,253.989395 549.825867,246.001572 
	C549.633850,241.111206 550.587708,237.835831 555.400330,235.129654 
	C563.575378,230.532791 566.079834,220.098511 562.126465,211.433411 
	C558.352417,203.161392 548.961670,198.696014 540.136292,200.976913 
	C532.399780,202.976395 527.030334,208.515656 526.113403,215.547195 
	C524.977051,224.261505 527.439819,231.606308 535.372009,235.982224 
	C539.047974,238.010147 540.173462,240.429871 540.048889,244.329498 
	C539.830688,251.155869 540.451233,258.035065 539.860229,264.817169 
	C539.052979,274.080902 540.944031,281.777130 548.825134,287.585663 
	C551.581055,289.616760 553.879517,292.487305 555.798096,295.366791 
	C557.352844,297.700226 558.879456,300.600494 558.944946,303.285309 
	C559.265869,316.443939 559.098816,329.614563 559.094666,342.780975 
	C559.090210,356.613983 558.964355,370.448303 559.129761,384.279205 
	C559.181519,388.603180 557.628784,390.393860 553.290955,390.081116 
	C550.308044,389.866058 547.294434,390.088379 544.294556,390.096436 
	C536.994141,390.115997 536.940979,390.051514 536.956421,382.969940 
	C536.970947,376.303528 536.978271,369.637024 536.963562,362.970612 
	C536.947571,355.746887 536.189636,354.981750 528.890015,354.976929 
	C502.723877,354.959625 476.557190,354.872559 450.392181,355.041199 
	C445.740692,355.071167 442.319763,353.789948 438.848541,350.562653 
	C428.365631,340.816406 417.579376,331.386047 406.689941,322.091980 
	C401.598114,317.746094 397.307800,313.670532 395.309906,306.508728 
	C391.631470,293.322693 378.759277,291.613068 369.475433,295.431152 
	C359.169434,299.669708 355.233734,312.674591 360.756744,322.406708 
	C366.762177,332.988892 380.396667,335.041412 390.484344,326.739075 
	C392.633209,324.970490 394.096252,323.797455 396.761444,326.199982 
	C408.261047,336.566162 420.116852,346.541046 431.503998,357.026550 
	C437.560425,362.603424 443.825867,365.380554 452.428955,365.137482 
	C475.077118,364.497650 497.755249,364.905640 520.421448,364.923553 
	C526.891724,364.928650 527.057617,365.134460 527.079224,371.744537 
	C527.090088,375.077759 527.070679,378.411072 527.066162,381.744324 
	C527.054932,390.034088 527.055176,390.064606 518.859436,390.068481 
	C478.360260,390.087585 437.861115,390.110870 397.361938,390.089691 
	C368.024719,390.074341 346.878082,412.913269 347.819763,439.597595 
	C348.495300,458.739868 347.895630,477.925690 347.979614,497.091553 
	C347.996429,500.925079 346.900787,503.022766 342.618683,502.984375 
	C327.453583,502.848328 312.286407,502.954285 297.120972,502.839172 
	C292.723267,502.805786 288.796906,501.681854 285.429718,498.256287 
	C277.843811,490.538788 269.954773,483.113861 262.052612,475.715637 
	C259.323547,473.160583 258.073486,470.405304 257.877197,466.584381 
	C257.480011,458.851013 253.035599,453.559418 246.020447,450.700928 
	C238.921661,447.808289 232.196762,449.031189 226.462021,454.126160 
	C218.820709,460.914978 217.692276,472.010498 223.603531,479.885742 
	C229.878159,488.245148 241.144028,490.458710 249.864136,484.614716 
	C253.112885,482.437469 255.091827,482.461121 257.897980,485.290070 
	C265.755432,493.211426 274.051025,500.697784 281.926239,508.602295 
	C285.124084,511.812042 287.681763,515.659546 290.530731,519.216858 
	C290.802521,519.056274 291.074310,518.895691 291.346100,518.735168 
	C290.736786,516.979858 290.127441,515.224609 289.436981,513.235596 
	C290.516602,513.106445 291.324646,512.932617 292.134399,512.924194 
	C309.625122,512.741577 327.116272,512.507874 344.606293,512.572510 
	C345.721313,512.576599 347.671722,514.850952 347.784943,516.191528 
	C348.176239,520.824463 347.758301,525.519165 347.968872,530.175903 
	C348.165710,534.528748 346.295868,536.113831 342.049988,536.035767 
	C332.553162,535.861084 323.046570,536.128357 313.553741,535.863892 
	C308.999573,535.737061 304.467621,534.811279 300.094238,534.268311 
	C300.329285,539.238037 300.334473,539.243225 295.278381,544.300110 
	C288.208069,551.371399 281.295776,558.614929 273.947906,565.385437 
	C271.863586,567.305969 268.527618,568.755737 265.715759,568.844727 
	C253.894653,569.218567 242.052811,568.875610 230.222610,569.057739 
	C226.294800,569.118225 223.968246,567.949158 221.910202,564.331421 
	C215.921280,553.803650 201.360825,551.743896 192.578491,560.041443 
	C187.127853,565.191223 184.715088,571.713379 186.993271,579.110596 
	C189.515320,587.299683 195.211914,592.627869 203.826935,593.464966 
	C211.457031,594.206299 218.241379,591.311523 221.911438,584.320312 
	C224.254959,579.856140 227.138306,578.754700 231.781174,578.854797 
	C244.108475,579.120544 256.446930,578.830505 268.777557,579.002625 
	C272.738098,579.057983 275.708466,577.903015 278.488708,575.015991 
	C286.810944,566.373962 295.230835,557.811829 303.955444,549.581909 
	C306.013184,547.640869 309.364410,546.301086 312.212799,546.117859 
	C319.682037,545.637268 327.202118,545.932617 334.701904,545.945679 
	C347.899506,545.968567 347.910950,545.976868 347.934357,559.166687 
	C347.953705,570.071045 348.413849,568.934204 338.285156,568.985352 
	C328.952454,569.032532 319.619202,568.982178 310.286682,569.047668 
	C307.180481,569.069519 304.685394,570.699707 305.313538,573.833984 
	C305.685974,575.692505 307.989716,577.492493 309.850861,578.609314 
	C311.103668,579.361145 313.100647,578.927917 314.764801,578.930054 
	C323.931244,578.941711 333.099731,579.034119 342.263184,578.864868 
	C346.170288,578.792725 348.024750,579.922119 348.004639,584.221802 
	C347.876221,611.720642 347.877350,639.220581 347.985809,666.719543 
	C348.002197,670.878601 346.425018,672.268677 342.365356,672.190796 
	C332.536011,672.002258 322.700104,672.095703 312.867523,672.167786 
	C309.353119,672.193542 305.238495,671.999512 305.153412,677.031799 
	C305.068176,682.074341 309.045258,682.034790 312.661469,682.041199 
	C322.494476,682.058716 332.329712,682.183960 342.159515,682.009827 
	C346.519318,681.932617 348.177551,683.730164 347.984711,687.964050 
	C347.787720,692.288940 348.182465,696.656189 347.742523,700.945923 
	C347.592987,702.403992 345.722412,704.835632 344.587219,704.865173 
	C332.794220,705.172974 320.989777,705.157166 309.191559,705.001099 
	C307.756561,704.982056 306.048584,703.903442 304.960083,702.820557 
	C296.101044,694.006592 287.547852,684.874512 278.454834,676.313843 
	C276.064331,674.063293 272.151794,672.422302 268.872040,672.301758 
	C256.222443,671.836914 243.543488,671.954102 230.881073,672.174927 
	C226.558472,672.250244 223.839020,671.120117 221.831955,666.981567 
	C218.207794,659.508362 211.372040,656.768066 203.546722,657.402100 
	C194.633911,658.124207 187.261337,666.297485 186.237030,675.523499 
	C185.370361,683.329712 191.433868,692.249573 199.339752,694.798584 
	C208.243484,697.669312 217.654266,694.355774 222.189972,686.210510 
	C224.034592,682.898010 226.313812,681.952881 229.812714,681.990845 
	C241.977768,682.122864 254.149643,681.881226 266.307556,682.206970 
	C268.824158,682.274414 271.856293,683.576660 273.686371,685.321472 
	C282.609741,693.829102 291.326019,702.564819 299.855408,711.469055 
	C303.006744,714.758911 306.363678,716.158264 310.874817,715.967407 
	C320.853180,715.545166 330.846771,715.495178 340.832306,715.225342 
	C346.564789,715.070435 347.941711,716.306946 347.962219,722.014465 
	C347.975372,725.680969 347.724182,729.363098 347.984100,733.010254 
	C348.308685,737.565186 346.533234,739.162048 341.946808,739.103210 
	C325.949738,738.898132 309.942566,739.268982 293.951874,738.888916 
	C287.902557,738.745056 283.518524,740.595947 279.479767,744.978943 
	C273.726196,751.222961 267.477997,757.012207 261.419403,762.973633 
	C257.242462,767.083557 253.091415,771.454773 247.043762,765.636475 
	C246.712769,765.318054 246.130798,765.251709 245.657852,765.091003 
	C236.980179,762.143738 228.899475,764.804443 223.171341,772.491333 
	C218.811813,778.341675 218.914841,787.391235 223.417358,794.095276 
	C227.928482,800.812195 236.583023,803.819092 244.616440,801.460754 
	C252.798706,799.058716 257.395020,792.653320 258.137360,783.682007 
	C258.348053,781.135681 259.592377,778.146851 261.364532,776.348022 
	C269.661530,767.925781 278.197113,759.726562 286.923706,751.749939 
	C288.672577,750.151367 291.612976,749.134644 294.022949,749.097961 
	C310.019135,748.854187 326.022278,749.080627 342.018951,748.854736 
	C346.652100,748.789307 348.079803,750.449646 348.033936,754.966431 
	C347.849518,773.130859 347.899323,791.298462 347.977539,809.464478 
	C348.078033,832.804138 365.579834,852.400085 388.766357,855.106506 
	C393.382538,855.645386 398.058136,855.892273 402.706970,855.899841 
	C441.872742,855.963806 481.038666,855.932556 520.204529,855.951782 
	C526.857666,855.955078 527.025757,856.157471 527.059326,862.592407 
	C527.082825,867.092224 527.087830,871.592224 527.082397,876.092102 
	C527.074158,882.859497 526.952087,882.997986 520.017273,883.001526 
	C495.351135,883.014160 470.684631,882.951355 446.019318,883.094482 
	C443.522064,883.108948 440.405579,883.587402 438.637604,885.094971 
	C424.830139,896.868164 411.163269,908.814941 397.739655,921.023315 
	C394.443176,924.021362 392.728455,924.171631 389.323303,921.087524 
	C383.591736,915.896545 376.522095,915.865723 369.620514,918.781067 
	C362.317169,921.866272 358.355713,927.830444 358.198120,935.567444 
	C358.052673,942.707092 360.724548,948.981079 367.461456,952.680359 
	C380.080597,959.609497 393.934174,952.726868 396.839233,938.298706 
	C397.297119,936.024475 398.362823,933.409729 400.016663,931.912537 
	C413.100220,920.067688 426.476807,908.546509 439.561127,896.702454 
	C442.513489,894.029968 445.464844,892.913879 449.387726,892.929993 
	C476.220001,893.040283 503.053070,892.996277 529.885803,892.953735 
	C535.874695,892.944275 536.938538,891.870300 536.974487,885.970520 
	C537.025269,877.637756 537.056213,869.303101 536.923340,860.971924 
	C536.865540,857.350769 538.305237,855.794495 541.953247,855.939636 
	C545.613220,856.085266 549.304260,856.167480 552.946655,855.861145 
	C557.866394,855.447510 559.207520,857.603394 559.173584,862.271423 
	C558.998779,886.269714 558.691528,910.279663 559.284607,934.264465 
	C559.511841,943.452942 557.809998,950.803955 550.275696,956.523376 
	C547.672363,958.499451 545.423401,961.188171 543.669067,963.965942 
	C541.996460,966.614441 540.308105,969.757019 540.149963,972.762634 
	C539.686462,981.571472 539.863953,990.422607 540.036987,999.252319 
	C540.106689,1002.809631 539.023682,1004.967407 535.731262,1006.785217 
	C527.117004,1011.541199 523.877563,1020.172180 526.663513,1029.396973 
	C529.025330,1037.217529 535.823608,1042.083008 544.387512,1042.082153 
	C553.874939,1042.081177 560.621521,1037.275146 563.206909,1028.675537 
	C565.541748,1020.909363 562.551636,1011.682800 555.387451,1007.817871 
	C550.769470,1005.326477 549.607056,1002.250305 549.831421,997.460388 
	C550.158508,990.475830 549.638367,983.448059 550.054565,976.473022 
	C550.217957,973.734863 551.378052,970.660828 553.054199,968.488037 
	C556.908508,963.491882 561.205505,958.805847 565.620850,954.285034 
	C568.451355,951.386902 569.123779,948.173889 569.110229,944.322815 
	C569.013245,916.823792 569.121399,889.323853 568.991272,861.825073 
	C568.971313,857.601562 570.200195,855.601440 574.671814,855.929993 
	C577.985840,856.173462 581.334534,855.924683 584.667664,855.932800 
	C590.807312,855.947815 591.083435,856.221802 591.086548,862.481323 
	C591.096924,883.647522 591.088623,904.813782 591.101440,925.979980 
	C591.102478,927.644226 590.614258,929.712769 591.405334,930.881531 
	C592.726501,932.833740 594.897644,934.210693 596.710999,935.829773 
	C598.124573,934.092224 599.893738,932.524048 600.829712,930.559021 
	C601.479553,929.194641 600.996216,927.284241 600.996704,925.617798 
	C601.002625,905.284851 600.992188,884.951965 601.012878,864.619019 
	C601.021606,856.023254 601.050232,856.020874 609.878235,855.943848 
	C612.211426,855.923523 614.564087,856.112244 616.873962,855.875427 
	C621.760315,855.374512 623.113586,857.552124 623.099731,862.248291 
	C622.966187,907.580261 622.967651,952.913025 623.110840,998.244934 
	C623.124512,1002.585205 621.847046,1005.184448 618.038269,1007.454834 
	C610.412231,1012.000793 607.336182,1020.966125 609.899841,1029.124023 
	C612.584045,1037.665405 619.401306,1042.301758 628.953735,1042.082397 
	C637.511230,1041.885742 643.868286,1036.909424 646.074463,1028.680054 
	C648.432373,1019.884644 645.135132,1011.132324 637.264526,1006.817871 
	C633.980835,1005.017822 632.910767,1002.863770 632.933044,999.295898 
	C633.053711,979.963745 632.982605,960.630432 632.987061,941.297485 
	C632.993164,914.798035 633.071777,888.298279 632.953735,861.799438 
	C632.934875,857.559570 634.235168,855.562683 638.673462,855.927490 
	C641.320801,856.145081 644.003052,855.919067 646.669556,855.926514 
	C655.029053,855.950012 655.032593,855.956238 655.035583,864.094177 
	C655.043518,885.760315 655.048157,907.426514 655.084900,929.990601 
z"/>
<path fill="#2A2A29" opacity="1.000000" stroke="none" 
	d="
M655.069580,929.541626 
	C655.048157,907.426514 655.043518,885.760315 655.035583,864.094177 
	C655.032593,855.956238 655.029053,855.950012 646.669556,855.926514 
	C644.003052,855.919067 641.320801,856.145081 638.673462,855.927490 
	C634.235168,855.562683 632.934875,857.559570 632.953735,861.799438 
	C633.071777,888.298279 632.993164,914.798035 632.987061,941.297485 
	C632.982605,960.630432 633.053711,979.963745 632.933044,999.295898 
	C632.910767,1002.863770 633.980835,1005.017822 637.264526,1006.817871 
	C645.135132,1011.132324 648.432373,1019.884644 646.074463,1028.680054 
	C643.868286,1036.909424 637.511230,1041.885742 628.953735,1042.082397 
	C619.401306,1042.301758 612.584045,1037.665405 609.899841,1029.124023 
	C607.336182,1020.966125 610.412231,1012.000793 618.038269,1007.454834 
	C621.847046,1005.184448 623.124512,1002.585205 623.110840,998.244934 
	C622.967651,952.913025 622.966187,907.580261 623.099731,862.248291 
	C623.113586,857.552124 621.760315,855.374512 616.873962,855.875427 
	C614.564087,856.112244 612.211426,855.923523 609.878235,855.943848 
	C601.050232,856.020874 601.021606,856.023254 601.012878,864.619019 
	C600.992188,884.951965 601.002625,905.284851 600.996704,925.617798 
	C600.996216,927.284241 601.479553,929.194641 600.829712,930.559021 
	C599.893738,932.524048 598.124573,934.092224 596.710999,935.829773 
	C594.897644,934.210693 592.726501,932.833740 591.405334,930.881531 
	C590.614258,929.712769 591.102478,927.644226 591.101440,925.979980 
	C591.088623,904.813782 591.096924,883.647522 591.086548,862.481323 
	C591.083435,856.221802 590.807312,855.947815 584.667664,855.932800 
	C581.334534,855.924683 577.985840,856.173462 574.671814,855.929993 
	C570.200195,855.601440 568.971313,857.601562 568.991272,861.825073 
	C569.121399,889.323853 569.013245,916.823792 569.110229,944.322815 
	C569.123779,948.173889 568.451355,951.386902 565.620850,954.285034 
	C561.205505,958.805847 556.908508,963.491882 553.054199,968.488037 
	C551.378052,970.660828 550.217957,973.734863 550.054565,976.473022 
	C549.638367,983.448059 550.158508,990.475830 549.831421,997.460388 
	C549.607056,1002.250305 550.769470,1005.326477 555.387451,1007.817871 
	C562.551636,1011.682800 565.541748,1020.909363 563.206909,1028.675537 
	C560.621521,1037.275146 553.874939,1042.081177 544.387512,1042.082153 
	C535.823608,1042.083008 529.025330,1037.217529 526.663513,1029.396973 
	C523.877563,1020.172180 527.117004,1011.541199 535.731262,1006.785217 
	C539.023682,1004.967407 540.106689,1002.809631 540.036987,999.252319 
	C539.863953,990.422607 539.686462,981.571472 540.149963,972.762634 
	C540.308105,969.757019 541.996460,966.614441 543.669067,963.965942 
	C545.423401,961.188171 547.672363,958.499451 550.275696,956.523376 
	C557.809998,950.803955 559.511841,943.452942 559.284607,934.264465 
	C558.691528,910.279663 558.998779,886.269714 559.173584,862.271423 
	C559.207520,857.603394 557.866394,855.447510 552.946655,855.861145 
	C549.304260,856.167480 545.613220,856.085266 541.953247,855.939636 
	C538.305237,855.794495 536.865540,857.350769 536.923340,860.971924 
	C537.056213,869.303101 537.025269,877.637756 536.974487,885.970520 
	C536.938538,891.870300 535.874695,892.944275 529.885803,892.953735 
	C503.053070,892.996277 476.220001,893.040283 449.387726,892.929993 
	C445.464844,892.913879 442.513489,894.029968 439.561127,896.702454 
	C426.476807,908.546509 413.100220,920.067688 400.016663,931.912537 
	C398.362823,933.409729 397.297119,936.024475 396.839233,938.298706 
	C393.934174,952.726868 380.080597,959.609497 367.461456,952.680359 
	C360.724548,948.981079 358.052673,942.707092 358.198120,935.567444 
	C358.355713,927.830444 362.317169,921.866272 369.620514,918.781067 
	C376.522095,915.865723 383.591736,915.896545 389.323303,921.087524 
	C392.728455,924.171631 394.443176,924.021362 397.739655,921.023315 
	C411.163269,908.814941 424.830139,896.868164 438.637604,885.094971 
	C440.405579,883.587402 443.522064,883.108948 446.019318,883.094482 
	C470.684631,882.951355 495.351135,883.014160 520.017273,883.001526 
	C526.952087,882.997986 527.074158,882.859497 527.082397,876.092102 
	C527.087830,871.592224 527.082825,867.092224 527.059326,862.592407 
	C527.025757,856.157471 526.857666,855.955078 520.204529,855.951782 
	C481.038666,855.932556 441.872742,855.963806 402.706970,855.899841 
	C398.058136,855.892273 393.382538,855.645386 388.766357,855.106506 
	C365.579834,852.400085 348.078033,832.804138 347.977539,809.464478 
	C347.899323,791.298462 347.849518,773.130859 348.033936,754.966431 
	C348.079803,750.449646 346.652100,748.789307 342.018951,748.854736 
	C326.022278,749.080627 310.019135,748.854187 294.022949,749.097961 
	C291.612976,749.134644 288.672577,750.151367 286.923706,751.749939 
	C278.197113,759.726562 269.661530,767.925781 261.364532,776.348022 
	C259.592377,778.146851 258.348053,781.135681 258.137360,783.682007 
	C257.395020,792.653320 252.798706,799.058716 244.616440,801.460754 
	C236.583023,803.819092 227.928482,800.812195 223.417358,794.095276 
	C218.914841,787.391235 218.811813,778.341675 223.171341,772.491333 
	C228.899475,764.804443 236.980179,762.143738 245.657852,765.091003 
	C246.130798,765.251709 246.712769,765.318054 247.043762,765.636475 
	C253.091415,771.454773 257.242462,767.083557 261.419403,762.973633 
	C267.477997,757.012207 273.726196,751.222961 279.479767,744.978943 
	C283.518524,740.595947 287.902557,738.745056 293.951874,738.888916 
	C309.942566,739.268982 325.949738,738.898132 341.946808,739.103210 
	C346.533234,739.162048 348.308685,737.565186 347.984100,733.010254 
	C347.724182,729.363098 347.975372,725.680969 347.962219,722.014465 
	C347.941711,716.306946 346.564789,715.070435 340.832306,715.225342 
	C330.846771,715.495178 320.853180,715.545166 310.874817,715.967407 
	C306.363678,716.158264 303.006744,714.758911 299.855408,711.469055 
	C291.326019,702.564819 282.609741,693.829102 273.686371,685.321472 
	C271.856293,683.576660 268.824158,682.274414 266.307556,682.206970 
	C254.149643,681.881226 241.977768,682.122864 229.812714,681.990845 
	C226.313812,681.952881 224.034592,682.898010 222.189972,686.210510 
	C217.654266,694.355774 208.243484,697.669312 199.339752,694.798584 
	C191.433868,692.249573 185.370361,683.329712 186.237030,675.523499 
	C187.261337,666.297485 194.633911,658.124207 203.546722,657.402100 
	C211.372040,656.768066 218.207794,659.508362 221.831955,666.981567 
	C223.839020,671.120117 226.558472,672.250244 230.881073,672.174927 
	C243.543488,671.954102 256.222443,671.836914 268.872040,672.301758 
	C272.151794,672.422302 276.064331,674.063293 278.454834,676.313843 
	C287.547852,684.874512 296.101044,694.006592 304.960083,702.820557 
	C306.048584,703.903442 307.756561,704.982056 309.191559,705.001099 
	C320.989777,705.157166 332.794220,705.172974 344.587219,704.865173 
	C345.722412,704.835632 347.592987,702.403992 347.742523,700.945923 
	C348.182465,696.656189 347.787720,692.288940 347.984711,687.964050 
	C348.177551,683.730164 346.519318,681.932617 342.159515,682.009827 
	C332.329712,682.183960 322.494476,682.058716 312.661469,682.041199 
	C309.045258,682.034790 305.068176,682.074341 305.153412,677.031799 
	C305.238495,671.999512 309.353119,672.193542 312.867523,672.167786 
	C322.700104,672.095703 332.536011,672.002258 342.365356,672.190796 
	C346.425018,672.268677 348.002197,670.878601 347.985809,666.719543 
	C347.877350,639.220581 347.876221,611.720642 348.004639,584.221802 
	C348.024750,579.922119 346.170288,578.792725 342.263184,578.864868 
	C333.099731,579.034119 323.931244,578.941711 314.764801,578.930054 
	C313.100647,578.927917 311.103668,579.361145 309.850861,578.609314 
	C307.989716,577.492493 305.685974,575.692505 305.313538,573.833984 
	C304.685394,570.699707 307.180481,569.069519 310.286682,569.047668 
	C319.619202,568.982178 328.952454,569.032532 338.285156,568.985352 
	C348.413849,568.934204 347.953705,570.071045 347.934357,559.166687 
	C347.910950,545.976868 347.899506,545.968567 334.701904,545.945679 
	C327.202118,545.932617 319.682037,545.637268 312.212799,546.117859 
	C309.364410,546.301086 306.013184,547.640869 303.955444,549.581909 
	C295.230835,557.811829 286.810944,566.373962 278.488708,575.015991 
	C275.708466,577.903015 272.738098,579.057983 268.777557,579.002625 
	C256.446930,578.830505 244.108475,579.120544 231.781174,578.854797 
	C227.138306,578.754700 224.254959,579.856140 221.911438,584.320312 
	C218.241379,591.311523 211.457031,594.206299 203.826935,593.464966 
	C195.211914,592.627869 189.515320,587.299683 186.993271,579.110596 
	C184.715088,571.713379 187.127853,565.191223 192.578491,560.041443 
	C201.360825,551.743896 215.921280,553.803650 221.910202,564.331421 
	C223.968246,567.949158 226.294800,569.118225 230.222610,569.057739 
	C242.052811,568.875610 253.894653,569.218567 265.715759,568.844727 
	C268.527618,568.755737 271.863586,567.305969 273.947906,565.385437 
	C281.295776,558.614929 288.208069,551.371399 295.278381,544.300110 
	C300.334473,539.243225 300.329285,539.238037 300.094238,534.268311 
	C304.467621,534.811279 308.999573,535.737061 313.553741,535.863892 
	C323.046570,536.128357 332.553162,535.861084 342.049988,536.035767 
	C346.295868,536.113831 348.165710,534.528748 347.968872,530.175903 
	C347.758301,525.519165 348.176239,520.824463 347.784943,516.191528 
	C347.671722,514.850952 345.721313,512.576599 344.606293,512.572510 
	C327.116272,512.507874 309.625122,512.741577 292.134399,512.924194 
	C291.324646,512.932617 290.516602,513.106445 289.436981,513.235596 
	C290.127441,515.224609 290.736786,516.979858 291.346100,518.735168 
	C291.074310,518.895691 290.802521,519.056274 290.530731,519.216858 
	C287.681763,515.659546 285.124084,511.812042 281.926239,508.602295 
	C274.051025,500.697784 265.755432,493.211426 257.897980,485.290070 
	C255.091827,482.461121 253.112885,482.437469 249.864136,484.614716 
	C241.144028,490.458710 229.878159,488.245148 223.603531,479.885742 
	C217.692276,472.010498 218.820709,460.914978 226.462021,454.126160 
	C232.196762,449.031189 238.921661,447.808289 246.020447,450.700928 
	C253.035599,453.559418 257.480011,458.851013 257.877197,466.584381 
	C258.073486,470.405304 259.323547,473.160583 262.052612,475.715637 
	C269.954773,483.113861 277.843811,490.538788 285.429718,498.256287 
	C288.796906,501.681854 292.723267,502.805786 297.120972,502.839172 
	C312.286407,502.954285 327.453583,502.848328 342.618683,502.984375 
	C346.900787,503.022766 347.996429,500.925079 347.979614,497.091553 
	C347.895630,477.925690 348.495300,458.739868 347.819763,439.597595 
	C346.878082,412.913269 368.024719,390.074341 397.361938,390.089691 
	C437.861115,390.110870 478.360260,390.087585 518.859436,390.068481 
	C527.055176,390.064606 527.054932,390.034088 527.066162,381.744324 
	C527.070679,378.411072 527.090088,375.077759 527.079224,371.744537 
	C527.057617,365.134460 526.891724,364.928650 520.421448,364.923553 
	C497.755249,364.905640 475.077118,364.497650 452.428955,365.137482 
	C443.825867,365.380554 437.560425,362.603424 431.503998,357.026550 
	C420.116852,346.541046 408.261047,336.566162 396.761444,326.199982 
	C394.096252,323.797455 392.633209,324.970490 390.484344,326.739075 
	C380.396667,335.041412 366.762177,332.988892 360.756744,322.406708 
	C355.233734,312.674591 359.169434,299.669708 369.475433,295.431152 
	C378.759277,291.613068 391.631470,293.322693 395.309906,306.508728 
	C397.307800,313.670532 401.598114,317.746094 406.689941,322.091980 
	C417.579376,331.386047 428.365631,340.816406 438.848541,350.562653 
	C442.319763,353.789948 445.740692,355.071167 450.392181,355.041199 
	C476.557190,354.872559 502.723877,354.959625 528.890015,354.976929 
	C536.189636,354.981750 536.947571,355.746887 536.963562,362.970612 
	C536.978271,369.637024 536.970947,376.303528 536.956421,382.969940 
	C536.940979,390.051514 536.994141,390.115997 544.294556,390.096436 
	C547.294434,390.088379 550.308044,389.866058 553.290955,390.081116 
	C557.628784,390.393860 559.181519,388.603180 559.129761,384.279205 
	C558.964355,370.448303 559.090210,356.613983 559.094666,342.780975 
	C559.098816,329.614563 559.265869,316.443939 558.944946,303.285309 
	C558.879456,300.600494 557.352844,297.700226 555.798096,295.366791 
	C553.879517,292.487305 551.581055,289.616760 548.825134,287.585663 
	C540.944031,281.777130 539.052979,274.080902 539.860229,264.817169 
	C540.451233,258.035065 539.830688,251.155869 540.048889,244.329498 
	C540.173462,240.429871 539.047974,238.010147 535.372009,235.982224 
	C527.439819,231.606308 524.977051,224.261505 526.113403,215.547195 
	C527.030334,208.515656 532.399780,202.976395 540.136292,200.976913 
	C548.961670,198.696014 558.352417,203.161392 562.126465,211.433411 
	C566.079834,220.098511 563.575378,230.532791 555.400330,235.129654 
	C550.587708,237.835831 549.633850,241.111206 549.825867,246.001572 
	C550.139465,253.989395 549.682800,262.009766 550.072021,269.990967 
	C550.196594,272.546204 551.592468,275.276611 553.080811,277.469299 
	C555.027710,280.337555 557.301392,283.203217 560.036255,285.276154 
	C568.095337,291.384827 569.444763,299.398590 569.225403,308.984833 
	C568.657410,333.804810 569.018616,358.646179 569.019409,383.479004 
	C569.019653,389.921204 569.242432,390.127777 575.831604,390.115936 
	C578.831421,390.110535 581.851135,389.842804 584.826599,390.100464 
	C589.603333,390.514069 591.229370,388.620270 591.183838,383.815216 
	C590.985046,362.817505 591.087830,341.816864 591.100037,320.817291 
	C591.101135,318.987457 590.640930,316.807098 591.457520,315.411102 
	C592.644836,313.381439 594.798767,311.917236 596.540466,310.211914 
	C598.007690,312.107056 600.591919,313.918610 600.741089,315.912384 
	C601.274414,323.040192 600.994995,330.229797 600.999023,337.396027 
	C601.007629,352.895721 601.154053,368.397797 600.911560,383.893707 
	C600.835205,388.771088 602.602112,390.484589 607.311035,390.134949 
	C611.124023,389.851807 614.973511,390.014771 618.806030,390.053955 
	C621.736023,390.083923 623.044434,388.704346 623.020813,385.790527 
	C622.978943,380.624573 623.053467,375.457855 623.053467,370.291443 
	C623.053711,328.625641 623.001465,286.959686 623.112549,245.294174 
	C623.124207,240.921463 622.277100,238.026672 617.983765,235.673065 
	C610.441101,231.538162 607.510559,222.083008 610.110718,213.424820 
	C612.383362,205.857529 619.969727,200.108475 627.666016,200.121277 
	C636.230103,200.135513 644.074524,206.283600 646.341675,214.758484 
	C648.472168,222.722244 645.023560,231.753372 637.574402,235.745010 
	C633.855225,237.737946 632.921204,240.182190 632.929688,244.069092 
	C633.031494,290.567963 632.996094,337.067078 633.012268,383.566132 
	C633.014465,389.852936 633.249634,390.052307 639.431580,390.116974 
	C655.069397,390.280609 655.063721,390.280579 655.047913,374.637054 
	C655.029480,356.470764 655.018738,338.304504 655.016113,320.138214 
	C655.015869,318.473175 654.533875,316.474701 655.274292,315.220764 
	C656.401184,313.312378 658.401611,311.919800 660.031067,310.308197 
	C661.620789,311.972137 663.637024,313.413513 664.659851,315.373352 
	C665.421631,316.833099 664.939575,318.963806 664.940063,320.795685 
	C664.945312,341.795227 665.046875,362.795807 664.847900,383.793518 
	C664.803223,388.514709 666.218201,390.572662 671.102966,390.159302 
	C674.744995,389.851105 678.436584,389.934448 682.096252,390.084137 
	C685.801758,390.235748 687.095032,388.561951 687.054993,384.991394 
	C686.941040,374.826263 687.023315,364.658936 687.022522,354.492493 
	C687.021240,337.826172 687.355469,321.149475 686.846313,304.498596 
	C686.638184,297.693176 688.879761,292.677216 693.435425,288.113251 
	C696.490295,285.052765 699.114929,281.550842 702.261047,278.596771 
	C705.337769,275.707794 706.279602,272.408905 706.177551,268.319031 
	C705.969666,259.991058 706.024719,251.652771 706.161255,243.321838 
	C706.215881,239.988495 705.246338,237.880402 702.083679,236.173553 
	C694.770508,232.226761 691.073120,224.473755 692.286377,216.980942 
	C693.701172,208.243256 699.055969,202.540176 707.632751,200.636337 
	C714.930481,199.016418 722.856995,202.469940 727.474915,209.281326 
	C733.322937,217.907150 730.219360,230.639984 720.522583,236.047089 
	C717.084656,237.964096 715.881226,240.153687 715.954163,243.930237 
	C716.147278,253.926208 716.211182,263.935333 715.869995,273.923615 
	C715.782837,276.476196 714.423523,279.271393 712.897278,281.421814 
	C710.599976,284.658691 707.979797,287.852814 704.892639,290.304047 
	C698.422791,295.441162 696.586914,301.714874 696.761108,309.899658 
	C697.282166,334.388031 696.938171,358.894653 696.947266,383.394165 
	C696.949707,389.879425 697.133240,390.040863 703.745728,390.071442 
	C706.745605,390.085297 709.764160,389.855133 712.741272,390.114075 
	C717.440613,390.522827 719.401733,388.809082 719.153320,383.903381 
	C718.824890,377.419800 719.050110,370.907715 719.052917,364.407898 
	C719.056824,355.295532 719.389343,354.968811 728.735962,354.967621 
	C754.568787,354.964325 780.401978,354.896362 806.233948,355.041718 
	C810.542725,355.065918 813.691467,353.723511 816.886353,350.808594 
	C828.816528,339.923737 840.943176,329.247223 853.215271,318.748627 
	C856.517700,315.923401 858.812744,313.076752 859.828491,308.681305 
	C861.897522,299.727814 868.833496,294.157257 877.083313,293.952576 
	C887.348450,293.697845 893.893860,297.944427 896.759766,306.718384 
	C899.401001,314.804657 896.516357,323.758789 889.757019,328.455078 
	C882.549255,333.462982 872.473328,333.338776 866.159058,327.328613 
	C862.613525,323.953766 860.753845,324.869598 857.626770,327.678192 
	C844.622375,339.358215 831.481812,350.896729 818.073853,362.107574 
	C815.811890,363.998962 811.994995,364.764557 808.885437,364.791870 
	C784.554504,365.005646 760.220825,364.900970 735.888000,364.920746 
	C729.059265,364.926300 728.954468,365.065430 728.940857,371.965057 
	C728.932983,375.964935 729.157349,379.977783 728.905701,383.961334 
	C728.623352,388.431122 730.217529,390.244476 734.885071,390.137970 
	C745.545837,389.894714 756.216187,390.076141 766.882629,390.077911 
	C797.882019,390.083069 828.881592,390.015045 859.880676,390.110291 
	C883.654175,390.183350 902.649536,405.692535 907.330627,428.751953 
	C907.921204,431.661255 908.027771,434.706757 908.036499,437.690094 
	C908.093567,457.189514 908.049988,476.689209 908.065918,496.188812 
	C908.071167,502.534546 908.494751,502.942139 914.925903,502.946198 
	C928.071655,502.954529 941.220642,502.754333 954.362000,502.990021 
	C961.887024,503.124969 968.301575,501.359375 973.678711,495.741302 
	C980.820618,488.279327 988.441772,481.274750 995.545898,473.778839 
	C997.050842,472.190857 997.695862,469.374908 997.909241,467.048737 
	C998.756470,457.814117 1004.697510,451.268494 1014.290405,449.491760 
	C1022.092163,448.046783 1031.071045,452.846588 1034.474609,460.281647 
	C1038.386108,468.826202 1035.946289,478.019165 1028.085815,484.353760 
	C1022.247986,489.058441 1012.117737,489.163635 1005.730103,484.140594 
	C1002.967224,481.967896 1001.224609,482.343323 998.932495,484.587097 
	C990.243103,493.093658 981.315613,501.360413 972.748535,509.986389 
	C970.099731,512.653381 968.333984,516.191650 966.122986,519.302063 
	C965.223450,520.567505 964.215027,521.755615 963.256165,522.978882 
	C962.887329,522.758728 962.518494,522.538513 962.149658,522.318359 
	C963.447021,519.589050 964.744324,516.859802 966.395203,513.386719 
	C964.068665,513.192505 962.199951,512.906555 960.330505,512.901123 
	C946.195251,512.860107 932.059814,512.874023 917.924438,512.871338 
	C916.757812,512.871094 915.581909,512.970825 914.426086,512.859863 
	C909.787048,512.414734 908.127502,514.881897 908.134399,519.106445 
	C908.140869,523.106140 908.221252,527.111755 908.036072,531.103943 
	C907.863037,534.833984 909.543335,536.068665 913.118958,536.027161 
	C924.283875,535.897278 935.453430,536.094177 946.616455,535.897583 
	C950.765503,535.824585 953.806641,537.105286 956.712585,540.141296 
	C965.123169,548.928162 973.738770,557.528137 982.533203,565.929932 
	C984.256531,567.576416 987.125488,568.806885 989.497131,568.860779 
	C1001.990356,569.144409 1014.494202,568.916870 1026.992798,569.036072 
	C1030.241699,569.067017 1032.083862,567.823730 1033.679810,564.989685 
	C1038.442993,556.531067 1047.943726,553.051575 1056.814819,556.153381 
	C1064.890381,558.977112 1070.627441,567.573181 1069.724731,575.497375 
	C1068.615967,585.232666 1060.819092,593.205444 1051.361328,593.636963 
	C1043.692749,593.986877 1037.698364,590.278931 1034.078369,583.722168 
	C1031.948242,579.864136 1029.391724,578.826294 1025.308716,578.886108 
	C1012.311890,579.076538 999.304626,579.149231 986.315125,578.781433 
	C983.505981,578.701965 980.138611,577.246399 978.082642,575.307007 
	C969.236267,566.962769 960.941895,558.032349 952.072327,549.714355 
	C949.907043,547.683716 946.366516,546.253235 943.386597,546.117126 
	C933.740601,545.676758 924.059875,546.069275 914.395752,545.923401 
	C910.699707,545.867554 908.787231,547.030029 908.749756,550.976379 
	C908.708740,555.294189 908.320190,559.608521 908.092834,563.924866 
	C907.903748,567.516113 909.613708,569.023682 913.202087,568.985596 
	C922.200623,568.890137 931.201050,568.958740 940.200684,568.965881 
	C941.867188,568.967163 943.534119,568.970520 945.200195,569.004395 
	C948.431396,569.070129 950.816345,570.302856 950.905396,573.884460 
	C950.997742,577.602356 948.391968,578.774353 945.287537,578.812622 
	C935.289429,578.935974 925.289368,578.915405 915.290100,578.925049 
	C908.147583,578.931946 908.102966,578.938782 908.098206,586.195862 
	C908.080811,612.528625 908.065979,638.861450 908.077881,665.194214 
	C908.080933,671.982666 908.227844,672.112976 915.164124,672.131836 
	C923.997131,672.155884 932.830322,672.112122 941.663391,672.121643 
	C943.160339,672.123230 945.084351,671.685730 946.062866,672.432068 
	C947.945557,673.868042 949.293030,676.005798 950.862549,677.852539 
	C949.101624,679.239075 947.483459,681.514587 945.549744,681.825134 
	C941.650818,682.451233 937.580322,682.002441 933.580627,682.007935 
	C926.747498,682.017395 919.913818,682.087830 913.081360,682.026550 
	C909.844666,681.997498 908.031616,683.181580 908.073303,686.662659 
	C908.135193,691.828125 907.882996,697.008057 908.219482,702.151978 
	C908.301636,703.407898 910.145508,705.574768 911.192627,705.582581 
	C921.645325,705.661560 932.105774,705.105896 942.553528,705.298645 
	C948.432495,705.407104 952.150085,702.430664 955.811218,698.579407 
	C963.258972,690.744995 970.662048,682.849426 978.496033,675.413574 
	C980.526611,673.486206 984.060974,672.327087 986.941956,672.252197 
	C999.766357,671.919067 1012.605286,672.019470 1025.436768,672.160889 
	C1029.274902,672.203125 1031.677979,671.297241 1033.711426,667.499939 
	C1039.211060,657.229736 1052.096313,654.342834 1061.101929,660.800537 
	C1070.745239,667.715515 1072.421997,680.310364 1064.905029,689.369202 
	C1057.139648,698.727295 1040.665894,697.638184 1034.279419,686.929321 
	C1031.928955,682.988037 1029.276978,681.895142 1025.044922,681.969482 
	C1013.382202,682.174377 1001.707336,681.830750 990.051453,682.178040 
	C987.388000,682.257324 984.188477,683.621094 982.249756,685.461792 
	C973.067017,694.179810 964.388611,703.430542 955.166016,712.103821 
	C952.998047,714.142639 949.453369,715.615662 946.477112,715.735413 
	C935.828064,716.164246 925.148682,716.033142 914.485962,715.834900 
	C909.918640,715.749939 908.104553,717.784668 908.116760,722.067505 
	C908.127686,725.900452 908.268066,729.745239 908.021545,733.563416 
	C907.755127,737.689758 909.389465,739.142456 913.519409,739.102356 
	C930.350891,738.939148 947.186340,739.149353 964.016541,738.932739 
	C968.550049,738.874390 971.827209,740.290283 975.008667,743.497253 
	C982.865173,751.416565 991.145386,758.913818 999.093567,766.744873 
	C1001.383545,769.001221 1002.935486,769.302551 1005.810730,767.385132 
	C1013.615601,762.180237 1023.999817,763.148987 1030.353394,769.127014 
	C1036.535522,774.943604 1037.973511,784.953674 1033.724854,792.596985 
	C1029.585938,800.042908 1021.012146,803.683533 1012.290955,801.698303 
	C1004.599976,799.947510 998.464294,793.059753 998.186707,784.915283 
	C998.042725,780.691833 996.537170,777.732422 993.557556,774.954468 
	C985.274109,767.231567 977.266846,759.209961 968.899658,751.581421 
	C967.254456,750.081421 964.495117,749.120178 962.233459,749.089294 
	C946.403320,748.872559 930.567078,749.100525 914.737061,748.879700 
	C909.792236,748.810730 907.933960,750.467346 907.991150,755.509705 
	C908.189636,773.006958 908.056458,790.508057 908.039551,808.007690 
	C908.013245,835.206421 887.615967,855.805908 860.283508,855.894226 
	C819.118103,856.027283 777.951965,855.940796 736.786133,855.963684 
	C728.995728,855.968018 728.995117,856.002441 728.968384,863.653687 
	C728.954407,867.653564 728.934631,871.653503 728.932373,875.653381 
	C728.928223,882.932373 728.981567,883.000305 736.054871,883.003479 
	C759.887695,883.013977 783.721924,883.145325 807.552368,882.909607 
	C812.897217,882.856750 817.106445,884.179382 821.073853,887.785828 
	C833.268433,898.870972 845.782532,909.605103 857.955139,920.713806 
	C861.080322,923.565796 863.079224,924.332947 866.652100,921.161194 
	C872.585449,915.893799 879.691589,915.659241 886.765198,918.912231 
	C894.195496,922.329285 897.931396,928.627258 897.755066,936.514404 
	C897.585510,944.097046 894.040039,950.205322 886.710266,953.587891 
	C875.727539,958.656433 862.903381,952.832886 859.996948,940.601135 
	C858.738892,935.306641 856.137024,931.908020 852.222717,928.538086 
	C839.986084,918.003357 828.162231,906.988403 815.897949,896.487244 
	C813.627014,894.542847 810.058716,893.179016 807.073608,893.149902 
	C780.576660,892.891479 754.076172,893.000916 727.576721,892.985901 
	C719.755432,892.981506 719.062988,892.264160 719.057556,884.375671 
	C719.052307,876.709229 718.909302,869.038574 719.122925,861.378052 
	C719.239197,857.210083 717.573608,855.638916 713.517761,855.897827 
	C710.197083,856.109863 706.830444,856.226562 703.526184,855.925476 
	C698.525757,855.469849 696.826721,857.370911 696.869751,862.442627 
	C697.079346,887.106995 697.270142,911.779724 696.800293,936.436829 
	C696.651855,944.227600 698.345703,950.220215 704.478149,955.223083 
	C708.050476,958.137390 711.049927,961.860229 713.853516,965.562744 
	C715.136475,967.257141 715.866577,969.767395 715.917236,971.929443 
	C716.139648,981.424194 716.081970,990.927368 715.993103,1000.426331 
	C715.965027,1003.422363 716.927124,1005.211792 719.813171,1006.622681 
	C728.674500,1010.954712 732.039673,1018.862366 729.715637,1028.771851 
	C727.965210,1036.235474 720.255371,1041.981201 711.871216,1042.070435 
	C702.259644,1042.172729 695.069885,1036.999634 692.843628,1028.379883 
	C690.534729,1019.440430 694.374390,1011.074585 702.407471,1006.272766 
	C704.146606,1005.233215 705.858887,1002.595093 705.948608,1000.619019 
	C706.333679,992.136841 706.244995,983.623230 706.004150,975.130188 
	C705.948059,973.152893 705.047058,970.864807 703.795837,969.317139 
	C699.612671,964.142395 694.814270,959.448975 690.825562,954.139954 
	C688.893677,951.568420 687.201599,948.046814 687.170654,944.937683 
	C686.898560,917.607727 687.030457,890.273804 687.030701,862.941040 
	C687.030762,856.047485 686.901062,855.926819 680.076965,855.917419 
	C676.910400,855.913086 673.728027,856.164124 670.581116,855.925598 
	C666.104492,855.586365 664.852539,857.620483 664.882874,861.828125 
	C665.025940,881.660095 664.949890,901.493530 664.947083,921.326477 
	C664.946716,923.992981 664.981567,926.661743 664.886963,929.325439 
	C664.775513,932.464722 664.327332,935.635071 660.300598,935.842407 
	C656.404846,936.043091 655.338257,933.272522 655.069580,929.541626 
M468.500000,400.069000 
	C445.836121,400.063660 423.172028,400.001892 400.508606,400.102600 
	C396.200897,400.121735 391.843353,400.476593 387.599243,401.204254 
	C371.611267,403.945526 358.441864,418.589539 358.023834,434.491791 
	C357.529266,453.303558 357.320526,472.127411 357.313477,490.946167 
	C357.306030,510.734650 357.848175,530.523132 357.864410,550.311829 
	C357.934998,636.271423 357.923859,722.231201 357.882141,808.190857 
	C357.875549,821.807068 363.492065,832.136353 374.839905,839.640869 
	C382.596069,844.770142 391.191742,845.942810 400.125061,845.943115 
	C506.111145,845.946472 612.097229,845.926270 718.083313,845.918945 
	C765.077209,845.915649 812.071167,845.997253 859.064880,845.899353 
	C879.245728,845.857361 893.943726,834.265442 897.503113,815.626648 
	C898.496033,810.427063 898.822449,805.033752 898.845764,799.726624 
	C898.969360,771.593689 898.898438,743.459961 898.895935,715.326477 
	C898.894714,702.049622 898.894775,688.772705 898.896118,675.495850 
	C898.899719,640.030090 898.990295,604.564087 898.878479,569.098694 
	C898.802917,545.135132 898.287415,521.172668 898.259827,497.209381 
	C898.238342,478.558929 899.039062,459.902802 898.784973,441.258636 
	C898.550049,424.021088 892.206116,409.814117 874.986389,403.211731 
	C869.537476,401.122528 863.318054,400.182220 857.449463,400.174988 
	C728.133179,400.016052 598.816528,400.062500 468.500000,400.069000 
M1060.659546,675.812317 
	C1060.247437,674.550842 1059.960083,673.230652 1059.400146,672.038574 
	C1057.565308,668.132935 1054.151001,666.344055 1050.113281,666.519775 
	C1045.631836,666.714905 1042.318726,669.135620 1040.774780,673.573669 
	C1039.351196,677.665833 1040.208862,681.659363 1043.616455,683.818176 
	C1046.249390,685.486145 1050.131714,686.304688 1053.224609,685.862854 
	C1057.971802,685.184753 1060.339966,681.384094 1060.659546,675.812317 
M195.391830,677.270142 
	C195.711517,678.385864 195.908646,679.555481 196.371429,680.608276 
	C198.798996,686.130737 204.749969,688.199097 210.035507,685.416077 
	C215.818939,682.370850 217.442551,676.546204 214.065872,671.143616 
	C211.569183,667.148804 207.683197,666.413635 203.593048,667.150391 
	C198.583054,668.052856 196.093689,671.636169 195.391830,677.270142 
M196.535034,570.168152 
	C194.529510,576.280884 196.800476,581.772095 202.102737,583.631104 
	C207.708572,585.596436 213.406219,582.812012 215.331451,577.166260 
	C216.865906,572.666443 214.782532,568.022583 210.116745,565.542480 
	C205.134171,562.893921 201.079651,564.104431 196.535034,570.168152 
M380.643127,926.540222 
	C378.532990,926.620789 376.318390,926.319214 374.334534,926.861633 
	C370.215820,927.987671 368.200714,931.255310 367.543579,935.248474 
	C366.830963,939.578613 369.124756,943.155151 372.645782,944.593445 
	C375.469208,945.746765 379.729919,945.839783 382.381104,944.492004 
	C390.093567,940.571045 389.389648,932.020081 380.643127,926.540222 
M1040.965698,570.722473 
	C1039.627197,575.998596 1041.164062,580.621704 1044.996704,582.848511 
	C1048.759888,585.034973 1054.307739,584.248779 1057.377563,581.094116 
	C1060.896729,577.477661 1061.442017,572.969788 1058.853149,568.895142 
	C1054.605835,562.210144 1046.627197,562.717957 1040.965698,570.722473 
M873.994202,321.759003 
	C878.951111,323.976440 883.129028,322.586365 886.411499,318.638489 
	C888.878601,315.671265 889.932861,312.203735 887.629150,308.551086 
	C885.151611,304.622894 881.554626,301.564209 876.975952,303.244110 
	C873.832214,304.397522 870.493835,307.323975 869.074463,310.324554 
	C867.032349,314.641602 869.526733,318.593842 873.994202,321.759003 
M229.171432,470.084167 
	C230.151962,474.850067 233.154755,478.361877 237.803406,478.372803 
	C240.967606,478.380280 244.925842,476.541748 247.114441,474.204254 
	C250.139206,470.973724 249.888382,466.467773 247.053574,462.708496 
	C244.181595,458.899963 240.093140,458.205017 235.835648,459.461060 
	C231.127701,460.850006 228.900436,464.335327 229.171432,470.084167 
M1009.699280,776.220825 
	C1009.098206,777.208496 1008.381958,778.145020 1007.916626,779.192932 
	C1006.149902,783.171753 1007.167786,786.607361 1010.084167,789.654480 
	C1013.164673,792.872803 1016.866577,793.838013 1020.976685,792.277039 
	C1024.941040,790.771545 1027.427734,787.558594 1026.783447,783.414246 
	C1026.323486,780.455872 1024.808716,777.035156 1022.627319,775.108704 
	C1018.776550,771.708069 1014.273804,772.943237 1009.699280,776.220825 
M1020.609497,459.448822 
	C1016.127014,458.473541 1011.841309,458.592957 1009.007324,462.822815 
	C1006.751648,466.189545 1006.112183,469.976318 1008.414307,473.624786 
	C1010.718201,477.276062 1014.082947,479.230255 1018.524902,478.516998 
	C1022.883728,477.817078 1025.844360,475.330933 1026.700317,470.910614 
	C1027.658936,465.959290 1026.011841,462.085175 1020.609497,459.448822 
M386.758667,308.949219 
	C385.585083,307.566559 384.609009,305.925812 383.201538,304.848724 
	C378.660095,301.373383 372.384796,302.763885 368.832581,307.839233 
	C365.985931,311.906464 367.074799,317.614136 371.475555,320.540741 
	C375.186646,323.008606 379.297058,323.929260 383.118317,321.016510 
	C386.787445,318.219727 388.795532,314.496155 386.758667,308.949219 
M888.846680,936.437805 
	C888.488647,934.997925 888.344116,933.459717 887.734131,932.135925 
	C885.577881,927.456665 879.389893,925.064087 874.666016,926.941040 
	C869.709167,928.910706 867.469482,934.322266 869.325073,939.846619 
	C870.819092,944.294556 876.345032,947.100220 881.150818,945.599854 
	C885.244934,944.321716 887.863953,941.475952 888.846680,936.437805 
M231.958267,776.487671 
	C228.141525,780.498657 228.356033,784.843384 231.190338,789.170349 
	C233.864929,793.253479 238.029984,793.660095 242.245590,792.550598 
	C246.883911,791.329895 249.204468,787.547546 248.704468,783.164856 
	C248.371323,780.244507 246.593033,776.732788 244.314316,774.962463 
	C240.614044,772.087830 236.200150,772.707153 231.958267,776.487671 
M720.959473,218.645844 
	C720.561584,214.537964 719.067139,211.118515 714.585632,210.283936 
	C710.394165,209.503372 706.249329,209.597244 703.365112,213.545929 
	C700.613525,217.313156 700.523193,221.166229 703.110168,225.081680 
	C705.690430,228.986984 709.534485,229.645798 713.625488,228.741333 
	C718.403992,227.684891 720.869202,224.411118 720.959473,218.645844 
M625.983582,228.877701 
	C630.452209,229.455841 634.259827,228.437653 636.597778,224.234787 
	C639.252136,219.463379 637.441956,213.328110 632.762268,210.945831 
	C627.671082,208.354126 621.409363,210.340485 619.171509,215.257019 
	C616.639648,220.819489 618.945435,225.976501 625.983582,228.877701 
M535.033813,218.711716 
	C534.861816,223.663406 537.048889,227.203049 541.802185,228.546753 
	C545.841431,229.688614 549.972046,229.375610 552.516724,225.405945 
	C554.899902,221.688354 555.540649,217.662842 552.779663,213.692993 
	C550.221985,210.015350 546.450684,209.556183 542.520203,210.143036 
	C538.180115,210.791077 536.067627,213.878647 535.033813,218.711716 
M718.510254,1029.962524 
	C721.663208,1026.161743 722.024902,1022.057434 719.296997,1017.992310 
	C716.633850,1014.023621 712.542297,1013.355591 708.179321,1014.289734 
	C704.016479,1015.181030 701.608826,1018.434326 701.763000,1022.185425 
	C701.891418,1025.313110 703.285461,1029.307495 705.551697,1031.220825 
	C709.270813,1034.360840 713.967834,1033.647339 718.510254,1029.962524 
M542.089966,1014.133728 
	C535.810913,1016.842224 533.362793,1022.208313 535.931885,1027.631714 
	C538.368286,1032.775024 544.687012,1034.507080 550.020996,1031.493774 
	C554.590454,1028.912354 555.893738,1022.867981 552.933655,1017.998535 
	C550.589233,1014.141724 546.877930,1013.752441 542.089966,1014.133728 
M637.047485,1019.691650 
	C635.279419,1015.444763 631.781433,1013.232178 627.574402,1014.192200 
	C624.553528,1014.881470 621.117310,1016.903381 619.392700,1019.389526 
	C616.740967,1023.212219 618.297729,1027.615356 621.551941,1030.617554 
	C624.707275,1033.528564 628.932556,1034.008667 632.694336,1031.870483 
	C637.010742,1029.417114 638.697083,1025.418579 637.047485,1019.691650 
z"/>
<path fill="#0B0B0A" opacity="1.000000" stroke="none" 
	d="
M469.000000,400.069336 
	C598.816528,400.062500 728.133179,400.016052 857.449463,400.174988 
	C863.318054,400.182220 869.537476,401.122528 874.986389,403.211731 
	C892.206116,409.814117 898.550049,424.021088 898.784973,441.258636 
	C899.039062,459.902802 898.238342,478.558929 898.259827,497.209381 
	C898.287415,521.172668 898.802917,545.135132 898.878479,569.098694 
	C898.990295,604.564087 898.899719,640.030090 898.896118,675.495850 
	C898.894775,688.772705 898.894714,702.049622 898.895935,715.326477 
	C898.898438,743.459961 898.969360,771.593689 898.845764,799.726624 
	C898.822449,805.033752 898.496033,810.427063 897.503113,815.626648 
	C893.943726,834.265442 879.245728,845.857361 859.064880,845.899353 
	C812.071167,845.997253 765.077209,845.915649 718.083313,845.918945 
	C612.097229,845.926270 506.111145,845.946472 400.125061,845.943115 
	C391.191742,845.942810 382.596069,844.770142 374.839905,839.640869 
	C363.492065,832.136353 357.875549,821.807068 357.882141,808.190857 
	C357.923859,722.231201 357.934998,636.271423 357.864410,550.311829 
	C357.848175,530.523132 357.306030,510.734650 357.313477,490.946167 
	C357.320526,472.127411 357.529266,453.303558 358.023834,434.491791 
	C358.441864,418.589539 371.611267,403.945526 387.599243,401.204254 
	C391.843353,400.476593 396.200897,400.121735 400.508606,400.102600 
	C423.172028,400.001892 445.836121,400.063660 469.000000,400.069336 
M644.930298,673.114929 
	C644.930298,673.114929 644.821960,673.171631 644.910400,673.916870 
	C648.478088,682.676880 652.097473,691.416382 655.576294,700.211548 
	C656.417603,702.338684 657.244324,704.637695 657.302734,706.877869 
	C657.493164,714.194885 657.325806,721.521240 656.687927,728.343628 
	C638.437256,698.565369 620.186584,668.787170 601.665894,638.568298 
	C604.556519,637.930603 606.619385,637.468445 608.685425,637.020752 
	C636.350952,631.026489 656.558960,615.687988 667.069458,589.074707 
	C676.176392,566.015320 676.817200,542.277222 669.973328,518.497070 
	C664.229065,498.537506 652.389160,483.190063 633.867737,473.334625 
	C620.142944,466.031555 605.259521,463.387573 589.952698,463.354187 
	C529.956482,463.223389 469.959839,463.319489 409.963348,463.350555 
	C408.383331,463.351379 406.803406,463.573212 405.332214,463.683807 
	C405.332214,480.177887 405.332214,496.079437 405.332214,512.308289 
	C408.075012,512.308289 410.396729,512.307678 412.718445,512.308350 
	C469.881866,512.325317 527.045410,512.271362 584.208679,512.393738 
	C607.784302,512.444214 621.661133,525.047729 623.421265,547.486206 
	C625.238586,570.653992 612.719849,587.142761 591.135986,589.648193 
	C585.860840,590.260559 580.487244,590.154968 575.158813,590.157166 
	C531.494690,590.175354 487.830505,590.121948 444.166351,590.138916 
	C435.559845,590.142212 432.542725,592.961304 432.549316,600.800476 
	C432.588196,646.964417 432.650848,693.128357 432.724060,739.292297 
	C432.726349,740.741333 432.930145,742.190186 433.062317,743.933533 
	C434.969421,744.053894 436.594452,744.242737 438.219818,744.245361 
	C451.052124,744.265930 463.889679,744.040649 476.714355,744.352661 
	C481.687408,744.473694 483.224976,743.082458 483.185425,737.953491 
	C482.949005,707.290405 483.073090,676.624512 483.076141,645.959595 
	C483.076355,644.042480 483.076172,642.125305 483.076172,639.832581 
	C503.790161,639.832581 523.610657,639.762268 543.428162,639.975098 
	C544.903442,639.990967 546.867859,641.727966 547.746704,643.183228 
	C579.957520,696.514954 612.162598,749.850952 644.050598,803.375793 
	C647.475891,809.125305 651.156433,811.662170 658.544800,810.217346 
	C673.265930,810.217346 687.987061,810.217346 703.118164,810.217346 
	C703.118164,807.807129 703.117554,806.014038 703.118286,804.220886 
	C703.129211,777.634399 703.123840,751.047913 703.185486,724.461548 
	C703.189941,722.543335 703.683777,720.626282 704.880554,718.877136 
	C731.956665,718.889771 759.032837,718.937866 786.108765,718.872620 
	C789.737061,718.863892 793.363953,718.282410 797.862488,718.040405 
	C823.647278,714.983215 844.687439,704.192810 857.366638,680.548157 
	C868.339355,660.085815 869.997620,638.066589 866.540833,615.537354 
	C863.784729,597.574829 856.611023,581.813110 842.020325,570.124329 
	C828.733154,559.479797 813.195557,554.745300 796.589966,554.416931 
	C765.954895,553.811096 735.302734,554.063599 704.657593,553.993347 
	C703.891541,553.991577 703.124573,554.396973 702.358032,554.612488 
	C702.835327,554.761169 703.312561,554.909912 703.789795,555.058594 
	C701.430664,569.661011 699.071533,584.263428 696.636230,599.337463 
	C697.364014,599.337463 699.131165,599.338257 700.898315,599.337341 
	C728.217346,599.322571 755.536316,599.299133 782.855347,599.295044 
	C812.778564,599.290588 829.468445,625.651367 816.821838,653.008362 
	C811.543457,664.426331 801.707458,669.292664 789.035339,671.137939 
	C786.709900,671.211243 784.384521,671.347717 782.059082,671.348328 
	C738.327332,671.360107 694.595642,671.350220 650.863892,671.372925 
	C648.894714,671.373962 646.925598,671.639954 644.375366,671.829468 
	C644.529297,672.284058 644.683228,672.738586 644.930298,673.114929 
z"/>
<path fill="#0B0B0A" opacity="1.000000" stroke="none" 
	d="
M1060.702393,676.189697 
	C1060.339966,681.384094 1057.971802,685.184753 1053.224609,685.862854 
	C1050.131714,686.304688 1046.249390,685.486145 1043.616455,683.818176 
	C1040.208862,681.659363 1039.351196,677.665833 1040.774780,673.573669 
	C1042.318726,669.135620 1045.631836,666.714905 1050.113281,666.519775 
	C1054.151001,666.344055 1057.565308,668.132935 1059.400146,672.038574 
	C1059.960083,673.230652 1060.247437,674.550842 1060.702393,676.189697 
z"/>
<path fill="#0B0B0A" opacity="1.000000" stroke="none" 
	d="
M195.368790,676.898132 
	C196.093689,671.636169 198.583054,668.052856 203.593048,667.150391 
	C207.683197,666.413635 211.569183,667.148804 214.065872,671.143616 
	C217.442551,676.546204 215.818939,682.370850 210.035507,685.416077 
	C204.749969,688.199097 198.798996,686.130737 196.371429,680.608276 
	C195.908646,679.555481 195.711517,678.385864 195.368790,676.898132 
z"/>
<path fill="#0B0B0A" opacity="1.000000" stroke="none" 
	d="
M196.699600,569.833557 
	C201.079651,564.104431 205.134171,562.893921 210.116745,565.542480 
	C214.782532,568.022583 216.865906,572.666443 215.331451,577.166260 
	C213.406219,582.812012 207.708572,585.596436 202.102737,583.631104 
	C196.800476,581.772095 194.529510,576.280884 196.699600,569.833557 
z"/>
<path fill="#0C0C0C" opacity="1.000000" stroke="none" 
	d="
M381.004272,926.680847 
	C389.389648,932.020081 390.093567,940.571045 382.381104,944.492004 
	C379.729919,945.839783 375.469208,945.746765 372.645782,944.593445 
	C369.124756,943.155151 366.830963,939.578613 367.543579,935.248474 
	C368.200714,931.255310 370.215820,927.987671 374.334534,926.861633 
	C376.318390,926.319214 378.532990,926.620789 381.004272,926.680847 
z"/>
<path fill="#0B0B0A" opacity="1.000000" stroke="none" 
	d="
M1041.111084,570.368774 
	C1046.627197,562.717957 1054.605835,562.210144 1058.853149,568.895142 
	C1061.442017,572.969788 1060.896729,577.477661 1057.377563,581.094116 
	C1054.307739,584.248779 1048.759888,585.034973 1044.996704,582.848511 
	C1041.164062,580.621704 1039.627197,575.998596 1041.111084,570.368774 
z"/>
<path fill="#0C0C0C" opacity="1.000000" stroke="none" 
	d="
M873.659058,321.580200 
	C869.526733,318.593842 867.032349,314.641602 869.074463,310.324554 
	C870.493835,307.323975 873.832214,304.397522 876.975952,303.244110 
	C881.554626,301.564209 885.151611,304.622894 887.629150,308.551086 
	C889.932861,312.203735 888.878601,315.671265 886.411499,318.638489 
	C883.129028,322.586365 878.951111,323.976440 873.659058,321.580200 
z"/>
<path fill="#0C0C0C" opacity="1.000000" stroke="none" 
	d="
M229.138000,469.686829 
	C228.900436,464.335327 231.127701,460.850006 235.835648,459.461060 
	C240.093140,458.205017 244.181595,458.899963 247.053574,462.708496 
	C249.888382,466.467773 250.139206,470.973724 247.114441,474.204254 
	C244.925842,476.541748 240.967606,478.380280 237.803406,478.372803 
	C233.154755,478.361877 230.151962,474.850067 229.138000,469.686829 
z"/>
<path fill="#0C0C0C" opacity="1.000000" stroke="none" 
	d="
M1009.973389,775.954224 
	C1014.273804,772.943237 1018.776550,771.708069 1022.627319,775.108704 
	C1024.808716,777.035156 1026.323486,780.455872 1026.783447,783.414246 
	C1027.427734,787.558594 1024.941040,790.771545 1020.976685,792.277039 
	C1016.866577,793.838013 1013.164673,792.872803 1010.084167,789.654480 
	C1007.167786,786.607361 1006.149902,783.171753 1007.916626,779.192932 
	C1008.381958,778.145020 1009.098206,777.208496 1009.973389,775.954224 
z"/>
<path fill="#0C0C0C" opacity="1.000000" stroke="none" 
	d="
M1020.979614,459.595154 
	C1026.011841,462.085175 1027.658936,465.959290 1026.700317,470.910614 
	C1025.844360,475.330933 1022.883728,477.817078 1018.524902,478.516998 
	C1014.082947,479.230255 1010.718201,477.276062 1008.414307,473.624786 
	C1006.112183,469.976318 1006.751648,466.189545 1009.007324,462.822815 
	C1011.841309,458.592957 1016.127014,458.473541 1020.979614,459.595154 
z"/>
<path fill="#0C0C0C" opacity="1.000000" stroke="none" 
	d="
M386.898804,309.302002 
	C388.795532,314.496155 386.787445,318.219727 383.118317,321.016510 
	C379.297058,323.929260 375.186646,323.008606 371.475555,320.540741 
	C367.074799,317.614136 365.985931,311.906464 368.832581,307.839233 
	C372.384796,302.763885 378.660095,301.373383 383.201538,304.848724 
	C384.609009,305.925812 385.585083,307.566559 386.898804,309.302002 
z"/>
<path fill="#0C0C0C" opacity="1.000000" stroke="none" 
	d="
M888.824463,936.823242 
	C887.863953,941.475952 885.244934,944.321716 881.150818,945.599854 
	C876.345032,947.100220 870.819092,944.294556 869.325073,939.846619 
	C867.469482,934.322266 869.709167,928.910706 874.666016,926.941040 
	C879.389893,925.064087 885.577881,927.456665 887.734131,932.135925 
	C888.344116,933.459717 888.488647,934.997925 888.824463,936.823242 
z"/>
<path fill="#0C0C0C" opacity="1.000000" stroke="none" 
	d="
M232.227066,776.225098 
	C236.200150,772.707153 240.614044,772.087830 244.314316,774.962463 
	C246.593033,776.732788 248.371323,780.244507 248.704468,783.164856 
	C249.204468,787.547546 246.883911,791.329895 242.245590,792.550598 
	C238.029984,793.660095 233.864929,793.253479 231.190338,789.170349 
	C228.356033,784.843384 228.141525,780.498657 232.227066,776.225098 
z"/>
<path fill="#0C0C0C" opacity="1.000000" stroke="none" 
	d="
M720.971802,219.054276 
	C720.869202,224.411118 718.403992,227.684891 713.625488,228.741333 
	C709.534485,229.645798 705.690430,228.986984 703.110168,225.081680 
	C700.523193,221.166229 700.613525,217.313156 703.365112,213.545929 
	C706.249329,209.597244 710.394165,209.503372 714.585632,210.283936 
	C719.067139,211.118515 720.561584,214.537964 720.971802,219.054276 
z"/>
<path fill="#0C0C0C" opacity="1.000000" stroke="none" 
	d="
M625.588501,228.801468 
	C618.945435,225.976501 616.639648,220.819489 619.171509,215.257019 
	C621.409363,210.340485 627.671082,208.354126 632.762268,210.945831 
	C637.441956,213.328110 639.252136,219.463379 636.597778,224.234787 
	C634.259827,228.437653 630.452209,229.455841 625.588501,228.801468 
z"/>
<path fill="#0C0C0C" opacity="1.000000" stroke="none" 
	d="
M535.073975,218.314407 
	C536.067627,213.878647 538.180115,210.791077 542.520203,210.143036 
	C546.450684,209.556183 550.221985,210.015350 552.779663,213.692993 
	C555.540649,217.662842 554.899902,221.688354 552.516724,225.405945 
	C549.972046,229.375610 545.841431,229.688614 541.802185,228.546753 
	C537.048889,227.203049 534.861816,223.663406 535.073975,218.314407 
z"/>
<path fill="#0C0C0C" opacity="1.000000" stroke="none" 
	d="
M718.231689,1030.234619 
	C713.967834,1033.647339 709.270813,1034.360840 705.551697,1031.220825 
	C703.285461,1029.307495 701.891418,1025.313110 701.763000,1022.185425 
	C701.608826,1018.434326 704.016479,1015.181030 708.179321,1014.289734 
	C712.542297,1013.355591 716.633850,1014.023621 719.296997,1017.992310 
	C722.024902,1022.057434 721.663208,1026.161743 718.231689,1030.234619 
z"/>
<path fill="#0C0C0C" opacity="1.000000" stroke="none" 
	d="
M542.494873,1014.084839 
	C546.877930,1013.752441 550.589233,1014.141724 552.933655,1017.998535 
	C555.893738,1022.867981 554.590454,1028.912354 550.020996,1031.493774 
	C544.687012,1034.507080 538.368286,1032.775024 535.931885,1027.631714 
	C533.362793,1022.208313 535.810913,1016.842224 542.494873,1014.084839 
z"/>
<path fill="#0C0C0C" opacity="1.000000" stroke="none" 
	d="
M637.174072,1020.056702 
	C638.697083,1025.418579 637.010742,1029.417114 632.694336,1031.870483 
	C628.932556,1034.008667 624.707275,1033.528564 621.551941,1030.617554 
	C618.297729,1027.615356 616.740967,1023.212219 619.392700,1019.389526 
	C621.117310,1016.903381 624.553528,1014.881470 627.574402,1014.192200 
	C631.781433,1013.232178 635.279419,1015.444763 637.174072,1020.056702 
z"/>
<path fill="#CF3820" opacity="1.000000" stroke="none" 
	d="
M657.571106,809.988220 
	C651.156433,811.662170 647.475891,809.125305 644.050598,803.375793 
	C612.162598,749.850952 579.957520,696.514954 547.746704,643.183228 
	C546.867859,641.727966 544.903442,639.990967 543.428162,639.975098 
	C523.610657,639.762268 503.790161,639.832581 483.076172,639.832581 
	C483.076172,642.125305 483.076355,644.042480 483.076141,645.959595 
	C483.073090,676.624512 482.949005,707.290405 483.185425,737.953491 
	C483.224976,743.082458 481.687408,744.473694 476.714355,744.352661 
	C463.889679,744.040649 451.052124,744.265930 438.219818,744.245361 
	C436.594452,744.242737 434.969421,744.053894 433.062317,743.933533 
	C432.930145,742.190186 432.726349,740.741333 432.724060,739.292297 
	C432.650848,693.128357 432.588196,646.964417 432.549316,600.800476 
	C432.542725,592.961304 435.559845,590.142212 444.166351,590.138916 
	C487.830505,590.121948 531.494690,590.175354 575.158813,590.157166 
	C580.487244,590.154968 585.860840,590.260559 591.135986,589.648193 
	C612.719849,587.142761 625.238586,570.653992 623.421265,547.486206 
	C621.661133,525.047729 607.784302,512.444214 584.208679,512.393738 
	C527.045410,512.271362 469.881866,512.325317 412.718445,512.308350 
	C410.396729,512.307678 408.075012,512.308289 405.332214,512.308289 
	C405.332214,496.079437 405.332214,480.177887 405.332214,463.683807 
	C406.803406,463.573212 408.383331,463.351379 409.963348,463.350555 
	C469.959839,463.319489 529.956482,463.223389 589.952698,463.354187 
	C605.259521,463.387573 620.142944,466.031555 633.867737,473.334625 
	C652.389160,483.190063 664.229065,498.537506 669.973328,518.497070 
	C676.817200,542.277222 676.176392,566.015320 667.069458,589.074707 
	C656.558960,615.687988 636.350952,631.026489 608.685425,637.020752 
	C606.619385,637.468445 604.556519,637.930603 601.665894,638.568298 
	C620.186584,668.787170 638.437256,698.565369 657.112061,728.833008 
	C657.547791,756.210938 657.559448,783.099609 657.571106,809.988220 
z"/>
<path fill="#E8E5DD" opacity="1.000000" stroke="none" 
	d="
M658.057983,810.102783 
	C657.559448,783.099609 657.547791,756.210938 657.416138,729.083130 
	C657.325806,721.521240 657.493164,714.194885 657.302734,706.877869 
	C657.244324,704.637695 656.417603,702.338684 655.576294,700.211548 
	C652.097473,691.416382 648.478088,682.676880 645.345337,673.514038 
	C648.774353,673.067932 651.768311,672.987061 654.762329,672.987183 
	C697.525146,672.988281 740.288025,673.027283 783.050598,672.935669 
	C785.354797,672.930725 787.656616,671.851929 789.959534,671.273071 
	C801.707458,669.292664 811.543457,664.426331 816.821838,653.008362 
	C829.468445,625.651367 812.778564,599.290588 782.855347,599.295044 
	C755.536316,599.299133 728.217346,599.322571 700.898315,599.337341 
	C699.131165,599.338257 697.364014,599.337463 696.636230,599.337463 
	C699.071533,584.263428 701.430664,569.661011 703.789795,555.058594 
	C703.312561,554.909912 702.835327,554.761169 702.358032,554.612488 
	C703.124573,554.396973 703.891541,553.991577 704.657593,553.993347 
	C735.302734,554.063599 765.954895,553.811096 796.589966,554.416931 
	C813.195557,554.745300 828.733154,559.479797 842.020325,570.124329 
	C856.611023,581.813110 863.784729,597.574829 866.540833,615.537354 
	C869.997620,638.066589 868.339355,660.085815 857.366638,680.548157 
	C844.687439,704.192810 823.647278,714.983215 797.065918,717.804443 
	C795.627563,717.407349 794.986023,717.106079 794.344055,717.105225 
	C765.229736,717.065552 736.115295,717.035339 707.001221,717.106445 
	C705.982910,717.108887 704.967102,718.151123 703.950073,718.708740 
	C703.683777,720.626282 703.189941,722.543335 703.185486,724.461548 
	C703.123840,751.047913 703.129211,777.634399 703.118286,804.220886 
	C703.117554,806.014038 703.118164,807.807129 703.118164,810.217346 
	C687.987061,810.217346 673.265930,810.217346 658.057983,810.102783 
z"/>
<path fill="#FDFBF5" opacity="1.000000" stroke="none" 
	d="
M789.497437,671.205505 
	C787.656616,671.851929 785.354797,672.930725 783.050598,672.935669 
	C740.288025,673.027283 697.525146,672.988281 654.762329,672.987183 
	C651.768311,672.987061 648.774353,673.067932 645.301147,673.141357 
	C644.821960,673.171631 644.930298,673.114929 644.932068,672.802979 
	C644.941345,672.254883 644.948914,672.018738 644.956482,671.782532 
	C646.925598,671.639954 648.894714,671.373962 650.863892,671.372925 
	C694.595642,671.350220 738.327332,671.360107 782.059082,671.348328 
	C784.384521,671.347717 786.709900,671.211243 789.497437,671.205505 
z"/>
<path fill="#FDFBF5" opacity="1.000000" stroke="none" 
	d="
M704.415283,718.792969 
	C704.967102,718.151123 705.982910,717.108887 707.001221,717.106445 
	C736.115295,717.035339 765.229736,717.065552 794.344055,717.105225 
	C794.986023,717.106079 795.627563,717.407349 796.630432,717.767334 
	C793.363953,718.282410 789.737061,718.863892 786.108765,718.872620 
	C759.032837,718.937866 731.956665,718.889771 704.415283,718.792969 
z"/>
<path fill="#E8E5DD" opacity="1.000000" stroke="none" 
	d="
M644.665894,671.806030 
	C644.948914,672.018738 644.941345,672.254883 644.885498,672.842041 
	C644.683228,672.738586 644.529297,672.284058 644.665894,671.806030 
z"/>
</svg>